<svg width="12" height="13" viewBox="0 0 12 13" fill="none" xmlns="http://www.w3.org/2000/svg">
<path d="M11.9799 5.14164C11.942 5.03512 11.8732 4.94156 11.7817 4.8723C11.6903 4.80304 11.5801 4.76106 11.4646 4.75145L8.05521 4.26809L6.52729 1.25723C6.47823 1.15877 6.40162 1.07573 6.30625 1.01763C6.21087 0.959527 6.10059 0.928711 5.98803 0.928711C5.87547 0.928711 5.76518 0.959527 5.66981 1.01763C5.57443 1.07573 5.49783 1.15877 5.44876 1.25723L3.92084 4.26226L0.511482 4.75145C0.400586 4.76677 0.296329 4.812 0.210541 4.882C0.124754 4.952 0.060871 5.04396 0.0261423 5.14747C-0.00564746 5.24861 -0.00850021 5.35626 0.0178902 5.45886C0.0442806 5.56146 0.0989178 5.65513 0.175938 5.72984L2.65057 8.05932L2.05139 11.3672C2.02719 11.4769 2.03614 11.5911 2.07714 11.696C2.11814 11.8009 2.18946 11.8921 2.28251 11.9585C2.37556 12.025 2.48638 12.0639 2.60163 12.0705C2.71689 12.0772 2.83168 12.0514 2.93219 11.9961L5.98803 10.4412L9.04387 11.9961C9.12796 12.0423 9.22294 12.0663 9.31949 12.066C9.44642 12.0665 9.5702 12.0277 9.67301 11.9554C9.76597 11.8907 9.83794 11.8014 9.88041 11.6982C9.92288 11.595 9.93408 11.4822 9.91269 11.373L9.3135 8.06514L11.7881 5.73566C11.8746 5.66442 11.9386 5.57079 11.9725 5.46564C12.0065 5.36049 12.009 5.24814 11.9799 5.14164Z" fill="black"/>
</svg>
