<svg width="2271" height="1594" viewBox="0 0 2271 1594" fill="none" xmlns="http://www.w3.org/2000/svg">
<path d="M1854.59 1559.63C2084.37 1559.63 2270.64 1533.78 2270.64 1501.9C2270.64 1470.02 2084.37 1444.17 1854.59 1444.17C1624.82 1444.17 1438.54 1470.02 1438.54 1501.9C1438.54 1533.78 1624.82 1559.63 1854.59 1559.63Z" fill="#EAFCF1"/>
<path d="M982.556 1593.77C1397.66 1593.77 1734.17 1565.11 1734.17 1529.75C1734.17 1494.4 1397.66 1465.74 982.556 1465.74C567.451 1465.74 230.942 1494.4 230.942 1529.75C230.942 1565.11 567.451 1593.77 982.556 1593.77Z" fill="#DFF8E8"/>
<path d="M1126.25 395.203C1126.25 395.203 1112.34 475.94 1011 579.862C1011 579.862 999.797 566 1019.18 508.564C1038.55 451.128 1120.47 375.647 1126.25 395.203Z" fill="#7E9E6E"/>
<path d="M1126.25 395.203C1126.25 395.203 1035.05 460.44 1011 579.862C1011 579.862 1006.33 620.816 1020.37 656.303" stroke="black" stroke-miterlimit="10" stroke-linecap="round"/>
<path d="M881.128 460.421C881.128 460.421 906.713 441.032 862.697 392.611C820.885 346.61 776.617 305.366 690.096 290.251C690.096 290.251 716.21 407.453 772.588 435.389C828.967 463.326 881.128 460.421 881.128 460.421Z" fill="#7E9E6E"/>
<path d="M671.12 546.6C671.12 546.6 761.389 566.294 914.49 515.198C914.49 515.198 904.998 499.369 836.586 494.047C768.175 488.722 653.304 533.446 671.12 546.6Z" fill="#7E9E6E"/>
<path d="M671.12 546.6C671.12 546.6 779.425 489.262 914.49 515.198C914.49 515.198 928.383 518.675 942.53 537.574" stroke="black" stroke-miterlimit="10" stroke-linecap="round"/>
<path d="M745.942 628.393C745.942 628.393 842.543 691.985 995.639 640.893C995.639 640.893 965.864 587.029 897.457 581.703C829.045 576.377 728.122 615.24 745.942 628.393Z" fill="#7E9E6E"/>
<path d="M745.941 628.393C745.941 628.393 850.06 579.808 995.639 640.893C995.639 640.893 1012.76 648.514 1026.91 667.412" stroke="black" stroke-miterlimit="10" stroke-linecap="round"/>
<path d="M1072.92 318.755C1072.92 318.755 1101.43 315.341 1031.86 379.7C966.165 440.476 974.517 440.95 974.517 440.95C974.517 440.95 999.444 350.009 1072.92 318.755Z" fill="black"/>
<path d="M926.727 471.734C926.727 471.734 948.02 479.946 986.426 444.698C1024.83 409.45 1039.15 330.895 1072.92 318.755C1072.92 318.755 988.192 346.128 926.727 471.734Z" fill="#7E9E6E"/>
<path d="M1066.37 741.636C1023.05 654.372 962.907 555.235 881.128 460.424C881.128 460.424 861.036 434.113 791.239 365.9C721.441 297.687 690.096 290.255 690.096 290.255" stroke="black" stroke-miterlimit="10" stroke-linecap="round"/>
<path d="M1062.91 322.938C1062.91 322.938 982.29 358.123 926.73 471.734C913.272 499.259 929.373 521.04 942.534 537.573" stroke="black" stroke-miterlimit="10" stroke-linecap="round"/>
<path d="M1798.11 1264.76C1798.11 1264.76 1730.73 1314.49 1575.46 1278C1575.46 1278 1575.87 1253.09 1631.59 1229.14C1687.32 1205.18 1806.92 1241.7 1798.11 1264.76Z" fill="#7E9E6E"/>
<path d="M1793.3 1260.23C1793.3 1260.23 1686.95 1224.68 1576.16 1275.3C1576.16 1275.3 1540.26 1295.57 1519.78 1327.76" stroke="black" stroke-miterlimit="10" stroke-linecap="round"/>
<path d="M1573.43 1155.36C1573.43 1155.36 1604.15 1164.69 1617.51 1100.63C1630.2 1039.78 1637.61 979.725 1599.06 900.798C1599.06 900.798 1519.51 990.737 1529.99 1052.78C1540.46 1114.83 1573.43 1155.36 1573.43 1155.36Z" fill="#7E9E6E"/>
<path d="M1801.83 1179.37C1801.83 1179.37 1825.52 1195.58 1730.79 1198.18C1641.33 1200.63 1647.3 1206.49 1647.3 1206.49C1647.3 1206.49 1725.96 1154.48 1801.83 1179.37Z" fill="black"/>
<path d="M1591.07 1198.17C1591.07 1198.17 1601.68 1218.37 1653.8 1217.15C1705.91 1215.93 1768.42 1166.26 1801.83 1179.37C1801.83 1179.37 1720.05 1144.15 1591.07 1198.17Z" fill="#7E9E6E"/>
<path d="M1454.52 1470.41C1499.74 1384.11 1544.68 1277.22 1573.43 1155.36C1573.43 1155.36 1582.94 1123.65 1597.19 1027.09C1611.44 930.54 1599.06 900.798 1599.06 900.798" stroke="black" stroke-miterlimit="10" stroke-linecap="round"/>
<path d="M1791.54 1175.92C1791.54 1175.92 1707.71 1149.28 1591.07 1198.16C1562.81 1210.01 1554.8 1228.7 1542.85 1263.37" stroke="black" stroke-miterlimit="10" stroke-linecap="round"/>
<path d="M724.24 689.808C702.43 689.808 681.316 682.156 664.569 668.18L618.109 629.408C601.389 615.455 581.528 607.979 561.182 607.979H330.597C309.672 607.979 292.709 624.944 292.709 645.871V689.808V1480.72C292.709 1516.83 321.979 1546.1 358.086 1546.1H1507.55C1535.63 1546.1 1558.4 1523.33 1558.4 1495.24V740.665C1558.4 712.58 1535.63 689.812 1507.55 689.812H724.24V689.808Z" fill="#07421D"/>
<path d="M1558.39 1499.5C1558.39 1499.5 1480.17 1352.76 1472.34 1335.9L1258.55 900.317C1253.18 888.741 1241.57 881.336 1228.81 881.336H434.337C405.454 881.336 363.681 866.197 341.503 847.69L309.445 820.935C292.725 806.983 272.864 799.507 252.518 799.507H33.0777C9.72045 799.507 -6.14601 823.238 2.7779 844.823L268.13 1486.65C283.006 1522.63 318.095 1546.09 357.021 1546.09H1544.04C1551.78 1546.09 1558.93 1539.46 1558.92 1531.72L1558.39 1499.5Z" fill="#15803D"/>
<path d="M1235.24 922.759L1548.96 1532.64" stroke="black" stroke-miterlimit="10" stroke-linejoin="round"/>
<path d="M1105.97 1027.86H835.736C828.367 1027.86 821.51 1024.15 817.551 1018.03C808.42 1003.9 818.726 985.404 835.736 985.404H1105.97C1113.34 985.404 1120.2 989.112 1124.16 995.233C1133.29 1009.37 1122.98 1027.86 1105.97 1027.86Z" stroke="black" stroke-miterlimit="10" stroke-linejoin="round"/>
<path d="M600.464 1237.47L810.867 1362.84" stroke="black" stroke-miterlimit="10" stroke-linecap="round" stroke-linejoin="round"/>
<path d="M772.493 1231.43L640.283 1363.59" stroke="black" stroke-miterlimit="10" stroke-linecap="round" stroke-linejoin="round"/>
<path d="M855.502 1341.26C873.101 1277.63 819.1 1207.16 734.888 1183.87C650.676 1160.57 568.142 1193.27 550.543 1256.89C532.944 1320.52 586.944 1390.99 671.156 1414.28C755.368 1437.58 837.903 1404.88 855.502 1341.26Z" stroke="black" stroke-miterlimit="10" stroke-linecap="round" stroke-linejoin="round"/>
<path d="M1792.31 690.219C1797.36 668.407 1774.15 641.214 1752.18 645.502C1734.29 648.992 1725.39 653.28 1722.52 654.227C1716.9 656.08 1674.97 653.35 1670.17 660.336C1666.69 665.396 1688.56 671.238 1702.55 672.629C1705.44 672.914 1706.29 676.682 1703.82 678.205C1690.08 686.73 1662.7 704.058 1660.38 708.339C1657.26 714.076 1643.04 736.385 1647.05 738.86C1651.05 741.339 1663.17 730.194 1671.04 722.283C1678.91 714.373 1701.92 707.645 1701.92 707.645C1701.92 707.645 1661.92 747.796 1656.64 758.929C1648.79 775.506 1671.57 768.238 1671.57 768.238C1668.01 777.605 1686.69 775.553 1691.11 772.017C1699.83 765.034 1726.8 732.492 1726.88 735.805C1726.96 739.122 1699.02 774.582 1701.85 782.864C1704.68 791.146 1715.98 780.753 1722.52 772.017C1729.06 763.28 1748.25 738.86 1748.25 738.86C1748.25 738.86 1770.07 722.937 1788.27 695.435C1788.42 695.216 1792.25 690.478 1792.31 690.219Z" fill="#DB9C7F"/>
<path d="M1672.57 767.337L1710.73 721.849" stroke="black" stroke-miterlimit="10" stroke-linecap="round"/>
<path d="M1505.39 561.191L1642.69 475.529C1643.54 474.973 1644.35 474.358 1645.12 473.688L1690.39 427.099C1700.24 418.461 1715.45 420.474 1722.71 431.38L1744.9 464.666C1749.6 471.714 1749.77 480.854 1745.32 488.068L1713.46 539.771C1711.11 543.577 1707.68 546.549 1703.57 548.311C1677.93 559.292 1579.99 600.664 1521.56 617.17C1507.05 621.27 1492.95 609.46 1494.22 594.434L1495.66 577.513C1496.22 570.86 1499.81 564.841 1505.39 561.191Z" fill="#607058"/>
<path d="M1821.59 1417.12L1814.33 1466.45C1814.33 1466.45 1678.29 1518.71 1690.91 1519.47C1703.53 1520.22 1899.03 1508.85 1899.03 1508.85L1887.53 1419.3L1821.59 1417.12Z" fill="black"/>
<path d="M1859.48 618.909C1859.48 618.909 1870.33 723.262 1878.46 728.682C1886.59 734.102 1897.43 736.812 1897.43 736.812L1879.81 617.554L1859.48 618.909Z" stroke="#424242" stroke-miterlimit="10"/>
<path d="M2074.32 547.184C2074.32 547.184 2129.46 659.479 2113.45 722.045L1807.78 679.995L1814.16 563.333L2074.32 547.184Z" fill="black"/>
<path d="M2082.71 569.931C2082.71 569.931 2039.51 649.947 1956.83 656.346" stroke="#424242" stroke-miterlimit="10" stroke-linecap="round"/>
<path d="M2013.55 639.276C2013.55 639.276 2030.3 691.144 2078.92 692.213" stroke="#424242" stroke-miterlimit="10" stroke-linecap="round"/>
<path d="M1807.78 679.995C1807.78 679.995 1725.89 971.568 1723.77 1065.43L1783.6 1427.05C1783.6 1427.05 1840.68 1455.43 1900.13 1432.5C1902.57 1431.56 1869.99 1244.94 1867.7 1052.8L2038.6 695.197L1807.78 679.995Z" fill="black"/>
<path d="M2114.8 709.811L2102.76 1061.66L2237.37 1429.51C2237.37 1429.51 2181.04 1477.1 2109.89 1433.79L1963.75 1083.53L1978.74 828.669L1915.05 790.101L1905.56 679.72L2114.8 709.811Z" fill="black"/>
<path d="M1878.25 645.503L1943.14 694.398L2036.17 590.534L1810.2 622.817L1865.49 696.144L1878.25 645.503Z" fill="white"/>
<path d="M2142.25 1411.17L2130.51 1453.73C2130.51 1453.73 2044.69 1546.82 2057.33 1546.82C2069.98 1546.82 2210.92 1489.2 2210.92 1489.2L2192.85 1400.53L2142.25 1411.17Z" fill="black"/>
<path d="M2063.33 596.956C2063.33 596.956 2100.45 688.21 2073.71 1071C2073.71 1071 2167.46 1277.36 2216.08 1440.57" stroke="#424242" stroke-miterlimit="10" stroke-linecap="round"/>
<path d="M1926.9 799.225L1833.34 1059.87L1873.46 1440.57" stroke="#424242" stroke-miterlimit="10" stroke-linecap="round"/>
<path d="M1518.83 612.651C1518.83 612.651 1520.65 621.779 1500.44 628.75C1480.23 635.72 1468.34 633.508 1468.34 633.508C1468.34 633.508 1423 580.031 1420.99 578.143C1418.98 576.252 1422.41 555.689 1435.82 547.454C1443.96 542.453 1475.55 550.606 1499.1 557.78C1515.52 562.781 1525.66 579.232 1522.9 596.177C1521.82 602.838 1520.46 609.013 1518.83 612.651Z" fill="#DB9C7F"/>
<path d="M1481.65 598.459C1481.65 598.459 1444.58 593.079 1428.92 580.164C1428.92 580.164 1405.51 575.445 1400.54 578.398C1395.56 581.35 1391.49 585.545 1380.72 587.362C1369.96 589.179 1373.2 582.008 1384.51 571.842C1387.74 568.937 1396.39 558.493 1403.88 557.079C1413.97 555.18 1435.81 547.454 1435.81 547.454L1479.63 599.842" fill="#DB9C7F"/>
<path d="M1468.34 633.508C1468.34 633.508 1453.31 642.938 1448.03 642.679C1442.74 642.425 1437.75 639.272 1436.45 630.586C1436.45 630.586 1408.47 635.724 1417.33 614.543C1417.33 614.543 1400.43 611.801 1399.98 600.766C1399.98 600.766 1384.96 593.283 1388.24 581.288C1391.53 569.289 1438.64 570.378 1438.64 570.378L1488.64 595.762L1468.34 633.508Z" fill="#DB9C7F"/>
<path d="M1457.72 635.513C1457.72 635.513 1472 622.852 1471.21 617.773C1470.41 612.694 1467.73 609.902 1464.49 610.877C1460.14 612.181 1443.59 624.802 1436.45 630.586" stroke="#1A1C30" stroke-width="0.7799" stroke-miterlimit="10" stroke-linecap="round" stroke-linejoin="round"/>
<path d="M1417.33 614.543C1417.33 614.543 1455.36 608.606 1455.72 602.971C1456.07 597.336 1453.41 589.903 1445.47 591.485C1436.03 593.365 1408.96 599.85 1399.98 599.674" stroke="#1A1C30" stroke-width="0.7799" stroke-miterlimit="10" stroke-linecap="round" stroke-linejoin="round"/>
<path d="M1464.49 610.877C1464.49 610.877 1471.48 606.538 1468.71 601.69C1465.95 596.842 1462.17 595.139 1454.08 597.242" stroke="#1A1C30" stroke-width="0.7799" stroke-miterlimit="10" stroke-linecap="round" stroke-linejoin="round"/>
<path d="M1399.21 583.79C1399.21 583.79 1401.29 581.084 1404.23 578.32" stroke="#1A1C30" stroke-width="0.7799" stroke-miterlimit="10" stroke-linecap="round" stroke-linejoin="round"/>
<path d="M1481.68 654.309L1481.03 654.678C1475.91 657.56 1469.42 655.743 1466.54 650.621L1367.67 474.816L1386.87 464.019L1485.74 639.824C1488.62 644.942 1486.8 651.427 1481.68 654.309Z" fill="#333969"/>
<path d="M1416.55 503.07L1424.84 517.825C1427.1 521.827 1426.08 526.671 1422.57 528.641L1404.64 538.725C1401.13 540.698 1396.47 539.05 1394.22 535.052L1385.56 519.658" fill="#333969"/>
<path d="M1378.19 358.687C1343.89 295.063 1300.91 251.267 1273.59 249.219L1274.49 243.177L1260.22 252.485C1235.68 269.194 1248.72 343.837 1289.34 419.201C1329.96 494.564 1382.78 542.112 1407.32 525.403L1420.74 516.455L1416.88 511.282C1426.32 482.088 1411.58 420.646 1378.19 358.687Z" fill="#333969"/>
<path d="M1419.68 517.232C1445.85 503.597 1434.97 430.949 1395.38 354.969C1355.79 278.989 1302.48 228.447 1276.32 242.082C1250.15 255.717 1261.04 328.365 1300.63 404.345C1340.22 480.326 1393.52 530.867 1419.68 517.232Z" fill="#7584F1"/>
<path d="M1378.91 358.612C1411.97 419.949 1424.95 479.08 1407.9 490.691C1390.85 502.302 1350.23 461.995 1317.17 400.658C1284.11 339.322 1271.14 280.191 1288.18 268.58C1305.23 256.969 1345.85 297.276 1378.91 358.612Z" fill="#D3DDF7"/>
<path d="M1481.65 598.459C1481.65 598.459 1444.58 593.079 1428.92 580.164C1428.92 580.164 1405.51 575.445 1400.54 578.398C1395.56 581.35 1391.49 585.545 1380.72 587.362C1369.96 589.179 1373.2 582.008 1384.51 571.842C1387.74 568.937 1396.39 558.493 1403.88 557.079C1413.97 555.18 1435.81 547.454 1435.81 547.454L1479.63 599.842" fill="#DB9C7F"/>
<path d="M1481.65 598.46C1481.65 598.46 1444.58 593.079 1428.92 580.164C1428.92 580.164 1405.51 575.445 1400.54 578.398C1395.56 581.351 1391.49 585.545 1380.72 587.362" stroke="#1A1C30" stroke-width="0.7799" stroke-miterlimit="10" stroke-linecap="round" stroke-linejoin="round"/>
<path d="M1378.91 358.612C1345.85 297.276 1305.23 256.969 1288.18 268.58C1286.84 269.496 1285.7 270.741 1284.72 272.229C1304.43 273.428 1338.9 310.853 1367.66 364.204C1398.1 420.697 1411.5 475.286 1400.11 492.634C1403.05 492.814 1405.68 492.199 1407.89 490.691C1424.95 479.08 1411.97 419.945 1378.91 358.612Z" fill="#333969"/>
<path d="M1355.89 334.572C1373.48 367.2 1380.38 398.657 1371.31 404.833C1362.24 411.008 1340.64 389.568 1323.05 356.94C1305.47 324.312 1298.56 292.855 1307.63 286.679C1316.7 280.504 1338.31 301.944 1355.89 334.572Z" fill="white"/>
<path d="M2013.48 439.587L1986.2 342.267C1976.19 306.541 1958.65 273.482 1935.46 244.52C1894.39 193.212 1786.5 197.88 1786.5 197.88L1703.49 257.611C1703.24 257.748 1702.98 257.889 1702.73 258.03C1653.86 284.999 1644.88 326.603 1646.16 390.727L1649.19 477.314L1705.38 423.649L1719.56 443.096C1719.5 442.536 1719.45 442.015 1719.4 441.51L1726.11 452.083L1719.56 443.096C1721.55 460.961 1730.87 506.461 1774.18 527.717L1798.85 566.544L1792.31 620.205C2023.86 704.415 2081.53 539.062 2081.53 539.062L2013.48 439.587Z" fill="#607058"/>
<path d="M1693.51 414.721L1723.83 451.801C1723.83 451.801 1719.68 508.951 1777.26 527.274" stroke="black" stroke-miterlimit="10" stroke-linecap="round"/>
<path d="M1923.62 490.194L1747.38 643.76C1747.38 643.76 1782.27 692.62 1797.98 694.366L2009.12 559.997" fill="#607058"/>
<path d="M1799.73 596.642C1799.73 596.642 1895.7 488.447 1928.85 472.744" stroke="black" stroke-miterlimit="10" stroke-linecap="round"/>
<path d="M1878.03 373.493C1878.03 373.493 1882.61 397.706 1913.36 482.777" stroke="black" stroke-miterlimit="10" stroke-linecap="round"/>
<path d="M1822.41 680.406C1822.41 680.406 2019.59 554.761 2021.33 518.115C2023.08 481.469 1971.6 311.327 1971.6 311.327" stroke="black" stroke-miterlimit="10" stroke-linecap="round"/>
<path d="M1844 502.408C1844 502.408 1891.46 506.876 1906.16 463.8" stroke="black" stroke-miterlimit="10" stroke-linecap="round"/>
<path d="M1651.81 470.332C1651.81 470.332 1664.9 457.245 1677.99 472.078" stroke="black" stroke-miterlimit="10" stroke-linecap="round"/>
<path d="M1496.54 556.723L1524.46 543.635C1524.46 543.635 1558.49 580.716 1546.27 612.565L1512.25 622.598C1512.25 622.598 1527.95 587.698 1496.54 556.723Z" fill="white"/>
<path d="M1758.5 624.125C1758.5 624.125 1795.15 639.832 1821.32 684.984L1793.18 706.58C1793.18 706.58 1758.5 656.847 1734.29 648.992L1758.5 624.125Z" fill="white"/>
<path d="M1727.75 192.226L1843.35 200.731C1843.35 200.731 1847.73 264.323 1777.92 320.404L1746.57 289.942L1729.49 327.03C1729.49 327.03 1702.96 312.106 1699.39 269.269L1705.02 217.261L1727.75 192.226Z" fill="white"/>
<path d="M1786.5 197.876C1790.72 201.471 1792.72 207.008 1791.74 212.463C1788.03 233.159 1776.81 283.253 1754.31 289.546C1725.85 297.507 1708.11 241.309 1708.11 241.309L1722.29 143.146L1786.5 197.876Z" fill="#DB9C7F"/>
<path d="M1696.36 221.153L1696.01 235.446C1695.74 235.591 1690.89 277.786 1705.06 279.411C1764.32 268.697 1768.05 212.507 1773.12 156.743C1773.12 156.743 1690.61 210.02 1696.36 221.153Z" fill="black"/>
<path d="M1597.7 115.903C1597.7 115.903 1583.26 253.542 1668.76 277.226C1754.27 300.914 1774.75 161.465 1771.8 113.24C1768.85 65.0142 1747.36 47.0789 1687.43 44.9172C1598.77 41.7218 1597.7 115.903 1597.7 115.903Z" fill="#DB9C7F"/>
<path d="M1674.52 182.408C1674.76 187.362 1672.41 191.509 1669.26 191.669C1666.11 191.83 1663.36 187.941 1663.12 182.988C1662.88 178.034 1665.23 173.887 1668.38 173.726C1671.53 173.57 1674.27 177.454 1674.52 182.408Z" fill="black"/>
<path d="M1683.91 157.052C1683.91 157.052 1655.66 169.348 1652.89 147.99" stroke="black" stroke-miterlimit="10" stroke-linecap="round"/>
<path d="M1618.61 157.107C1618.61 157.107 1609.28 173.307 1598.55 166.11" stroke="black" stroke-miterlimit="10" stroke-linecap="round"/>
<path d="M1603.6 185.882C1603.6 185.882 1608.94 184.159 1616.77 188.294" stroke="black" stroke-miterlimit="10" stroke-linecap="round"/>
<path d="M1687.32 237.224C1687.32 237.224 1695.02 229.858 1701.38 228.182" stroke="black" stroke-miterlimit="10" stroke-linecap="round"/>
<path d="M1629.53 201.741C1629.53 201.741 1624.62 212.902 1637.11 218.259" stroke="black" stroke-miterlimit="10" stroke-linecap="round"/>
<path d="M1596.7 145.496C1596.7 145.496 1598.15 105.192 1616.01 82.4207C1616.01 82.4207 1640.56 138.228 1746.36 149.611L1777.16 143.138C1777.16 143.138 1789.77 78.5165 1745.57 53.0703C1701.38 27.6242 1633.74 41.6865 1611.98 64.5677C1575.1 103.352 1596.7 145.496 1596.7 145.496Z" fill="black"/>
<path d="M1725.82 142.245L1744.12 178.406L1757.07 137.781L1725.82 142.245Z" fill="black"/>
<path d="M1789.79 174.65C1784.52 193.886 1769.39 206.601 1756 203.053C1742.6 199.505 1736.02 181.033 1741.29 161.798C1746.56 142.563 1761.7 129.847 1775.09 133.395C1788.48 136.943 1795.06 155.415 1789.79 174.65Z" fill="#DB9C7F"/>
<path d="M1776.35 157.902C1776.35 157.902 1761.29 144.94 1753.06 168.639C1753.06 168.639 1761.85 177.979 1756.3 185.31C1756.3 185.31 1764.98 187.28 1769.26 179.628" stroke="black" stroke-miterlimit="10" stroke-linecap="round" stroke-linejoin="round"/>
<path d="M1769.83 166.967C1769.83 166.967 1768.99 161.7 1763.14 155.693" stroke="black" stroke-miterlimit="10" stroke-linecap="round" stroke-linejoin="round"/>
<path d="M1777.16 202.403C1777.16 209.616 1771.31 215.463 1764.1 215.463C1756.88 215.463 1751.04 209.616 1751.04 202.403C1751.04 195.19 1756.88 189.343 1764.1 189.343C1771.31 189.343 1777.16 195.19 1777.16 202.403Z" fill="white"/>
<path d="M1740.55 69.921C1740.55 69.921 1756.62 -14.0106 1794.12 2.06062C1831.62 18.1319 1848.59 98.4921 1812.87 104.742C1777.16 110.992 1749.48 94.0279 1749.48 94.0279L1740.55 69.921Z" fill="black"/>
<path d="M1741 94.0278C1741 94.0278 1803.05 145.817 1823.14 98.0457" stroke="black" stroke-miterlimit="10" stroke-linecap="round"/>
<path d="M1975.5 826.688L1903.67 786.15" stroke="#424242" stroke-miterlimit="10" stroke-linecap="round"/>
<path d="M345.098 294.3C422.711 296.415 486.929 358.585 491.396 436.106C494.024 481.688 476.36 523.167 446.632 552.431C442.239 556.754 440.199 562.918 441.224 568.996L452.388 635.062L383.699 595.037C379.787 592.758 375.178 591.92 370.738 592.817C353.947 596.204 336.158 596.827 317.821 594.05C249.965 583.771 197.025 527.592 190.768 459.242C182.427 368.144 255.185 291.848 345.098 294.3Z" fill="#D3DDF7"/>
<path d="M334.008 497.211L333.585 461.165C338.844 459.884 343.641 458.216 347.979 456.152C352.314 454.092 356.12 451.711 359.39 449.005C362.659 446.307 365.396 443.284 367.605 439.94C369.809 436.6 371.474 433.009 372.617 429.171C373.752 425.333 374.324 421.28 374.324 417.012C374.324 410.899 372.828 405.138 369.841 399.734C366.857 394.334 362.589 389.96 357.044 386.616C351.5 383.275 344.89 381.603 337.211 381.603C328.965 381.603 321.321 383.882 314.285 388.429C307.244 392.983 301.876 400.729 298.183 411.678L294.346 409.117C297.615 398.74 303.089 390.775 310.768 385.229C318.447 379.68 327.187 376.908 337 376.908C345.391 376.908 352.745 378.69 359.076 382.242C365.4 385.797 370.342 390.598 373.897 396.641C377.449 402.683 379.231 409.473 379.231 417.012C379.231 422.702 378.271 428.031 376.353 433.009C374.434 437.986 371.728 442.536 368.247 446.66C364.762 450.787 360.533 454.374 355.556 457.433C350.579 460.495 344.964 462.802 338.707 464.364L338.284 497.211H334.008ZM331.451 524.087C331.451 522.239 331.948 520.711 332.943 519.501C333.938 518.295 335.292 517.688 336.996 517.688C338.985 517.688 340.406 518.26 341.264 519.396C342.117 520.535 342.54 522.098 342.54 524.087C342.54 525.794 342.078 527.286 341.154 528.567C340.226 529.847 338.84 530.486 336.992 530.486C335.14 530.486 333.757 529.914 332.829 528.778C331.909 527.643 331.451 526.08 331.451 524.087Z" fill="black"/>
</svg>
