<svg width="15" height="13" viewBox="0 0 15 13" fill="none" xmlns="http://www.w3.org/2000/svg">
<path d="M14.3095 4.91509C14.2654 4.79081 14.1851 4.68165 14.0784 4.60085C13.9717 4.52005 13.8431 4.47108 13.7083 4.45987L9.73076 3.89594L7.94818 0.383274C7.89094 0.268402 7.80157 0.171524 7.6903 0.103738C7.57903 0.0359521 7.45036 0 7.31904 0C7.18772 0 7.05905 0.0359521 6.94778 0.103738C6.83651 0.171524 6.74714 0.268402 6.6899 0.383274L4.90732 3.88914L0.929736 4.45987C0.800358 4.47774 0.678725 4.5305 0.578639 4.61217C0.478554 4.69383 0.404024 4.80113 0.363507 4.92188C0.326419 5.03988 0.323091 5.16547 0.35388 5.28517C0.384668 5.40487 0.448412 5.51416 0.538269 5.60131L3.42534 8.31904L2.72629 12.1782C2.69807 12.3062 2.7085 12.4395 2.75634 12.5618C2.80418 12.6842 2.88738 12.7906 2.99593 12.8681C3.10449 12.9456 3.23378 12.991 3.36825 12.9988C3.50271 13.0066 3.63663 12.9764 3.75389 12.912L7.31904 11.0979L10.8842 12.912C10.9823 12.9658 11.0931 12.9939 11.2057 12.9935C11.3538 12.994 11.4982 12.9488 11.6182 12.8644C11.7266 12.7889 11.8106 12.6848 11.8601 12.5644C11.9097 12.444 11.9228 12.3124 11.8978 12.185L11.1988 8.32584L14.0858 5.60811C14.1868 5.525 14.2614 5.41576 14.301 5.29309C14.3406 5.17041 14.3435 5.03934 14.3095 4.91509Z" fill="white"/>
</svg>
